<svg width="24" height="24" viewBox="0 0 24 24" fill="none" xmlns="http://www.w3.org/2000/svg">
<g clip-path="url(#clip0_2_2)">
<path d="M8.52002 12.79L10.59 14.91M11.89 11.42L17.38 5.79M19.68 6.66C19.5775 6.75626 19.4568 6.83116 19.325 6.88031C19.1932 6.92947 19.053 6.95191 18.9124 6.94633C18.7719 6.94074 18.6339 6.90725 18.5064 6.84779C18.379 6.78833 18.2646 6.7041 18.17 6.6L16.6 5C16.3919 4.79933 16.2694 4.52596 16.2583 4.23707C16.2471 3.94818 16.348 3.66616 16.54 3.45C16.69 3.246 16.9 3.092 17.14 3.01L21.91 1.55C22.0873 1.50184 22.2743 1.50343 22.4507 1.55459C22.6271 1.60574 22.786 1.70449 22.91 1.84C23.0099 1.92687 23.0915 2.0327 23.1501 2.15135C23.2088 2.27 23.2433 2.39911 23.2517 2.5312C23.26 2.66329 23.2421 2.79572 23.1989 2.92083C23.1557 3.04593 23.0881 3.16122 23 3.26L19.68 6.66ZM11 10.53C10.6869 10.1952 10.4547 9.793 10.3212 9.35442C10.1877 8.91585 10.1565 8.45251 10.23 8C10.35 7.29748 10.5902 6.6209 10.94 6C11.0183 5.8568 11.0661 5.6989 11.0803 5.53629C11.0945 5.37368 11.0748 5.2099 11.0224 5.05529C10.9701 4.90069 10.8862 4.75863 10.7762 4.63809C10.6661 4.51755 10.5322 4.42116 10.383 4.355C10.1746 4.26539 9.94373 4.24179 9.72149 4.28738C9.49925 4.33297 9.29632 4.44556 9.14002 4.61C8.19548 5.52897 7.54768 6.70965 7.28002 8C7.07002 9.05 6.28002 10.48 5.28002 10.49C4.66563 10.4934 4.05827 10.6209 3.49439 10.8649C2.93051 11.1089 2.42175 11.4643 1.99866 11.9098C1.57557 12.3553 1.24687 12.8817 1.0323 13.4574C0.817731 14.0331 0.721716 14.6463 0.75002 15.26C0.764527 16.8677 1.41111 18.4052 2.55002 19.54L3.63002 20.66C4.16741 21.2318 4.81451 21.6894 5.5327 22.0056C6.25088 22.3217 7.0254 22.4899 7.81002 22.5C8.41893 22.5107 9.02381 22.3993 9.58897 22.1725C10.1541 21.9456 10.6681 21.6078 11.1006 21.179C11.5331 20.7503 11.8753 20.2392 12.1071 19.6761C12.3389 19.1129 12.4555 18.509 12.45 17.9C12.45 16.79 13.65 16.1 14.68 16.14C15.2817 16.1888 15.8866 16.1008 16.4495 15.8826C17.0123 15.6644 17.5185 15.3216 17.93 14.88C18.0729 14.7273 18.1702 14.5376 18.2108 14.3324C18.2515 14.1272 18.2338 13.9148 18.1599 13.7191C18.0861 13.5234 17.9588 13.3524 17.7927 13.2253C17.6266 13.0982 17.4282 13.0201 17.22 13C13.98 12.73 13.29 12.84 12.42 11.94L11 10.53Z" stroke="black" stroke-width="2" stroke-linecap="round" stroke-linejoin="round"/>
<path d="M4.92004 17.06C4.92098 17.4606 5.07602 17.8456 5.35304 18.135C5.48808 18.2766 5.65046 18.3894 5.83034 18.4664C6.01022 18.5434 6.20386 18.5831 6.39954 18.5831C6.59522 18.5831 6.78887 18.5434 6.96875 18.4664C7.14863 18.3894 7.31101 18.2766 7.44604 18.135C7.58454 17.9935 7.69363 17.8259 7.76704 17.642C7.91722 17.2685 7.91722 16.8515 7.76704 16.478C7.69393 16.2942 7.58518 16.1266 7.44704 15.985C7.31171 15.8439 7.14924 15.7316 6.9694 15.6549C6.78956 15.5782 6.59606 15.5387 6.40054 15.5387C6.20503 15.5387 6.01153 15.5782 5.83169 15.6549C5.65185 15.7316 5.48938 15.8439 5.35404 15.985C5.07702 16.2744 4.92098 16.6594 4.92004 17.06Z" stroke="black" stroke-width="2" stroke-linecap="round" stroke-linejoin="round"/>
</g>
<defs>
<clipPath id="clip0_2_2">
<rect width="24" height="24" fill="white"/>
</clipPath>
</defs>
</svg>
